<mxfile host="app.diagrams.net" modified="2023-01-31T02:45:20.028Z" agent="5.0 (Windows NT 10.0; Win64; x64) AppleWebKit/537.36 (KHTML, like Gecko) Chrome/108.0.0.0 Safari/537.36" etag="-Oe-ouMn4xmmJKpLM2rI" version="20.8.13" type="github">
  <diagram name="第 1 页" id="Jq542jI_GY7hyT4ssytI">
    <mxGraphModel dx="1647" dy="806" grid="1" gridSize="10" guides="1" tooltips="1" connect="1" arrows="1" fold="1" page="1" pageScale="1" pageWidth="827" pageHeight="1169" math="0" shadow="0">
      <root>
        <mxCell id="0" />
        <mxCell id="1" parent="0" />
        <UserObject label="" treeRoot="1" id="bL9sHLg3ZVzQQd68nAyV-95">
          <mxCell style="whiteSpace=wrap;html=1;align=center;treeFolding=1;treeMoving=1;newEdgeStyle={&quot;edgeStyle&quot;:&quot;elbowEdgeStyle&quot;,&quot;startArrow&quot;:&quot;none&quot;,&quot;endArrow&quot;:&quot;none&quot;};fillColor=#FFFFFF;strokeColor=#d6b656;" vertex="1" parent="1">
            <mxGeometry x="617" y="555" width="40" height="30" as="geometry" />
          </mxCell>
        </UserObject>
        <UserObject label="" treeRoot="1" id="bL9sHLg3ZVzQQd68nAyV-1">
          <mxCell style="whiteSpace=wrap;html=1;align=center;treeFolding=1;treeMoving=1;newEdgeStyle={&quot;edgeStyle&quot;:&quot;elbowEdgeStyle&quot;,&quot;startArrow&quot;:&quot;none&quot;,&quot;endArrow&quot;:&quot;none&quot;};fillColor=#FFFFFF;strokeColor=#b85450;" vertex="1" parent="1">
            <mxGeometry x="250" y="320" width="40" height="30" as="geometry" />
          </mxCell>
        </UserObject>
        <mxCell id="bL9sHLg3ZVzQQd68nAyV-2" value="" style="endArrow=none;html=1;rounded=0;fillColor=#dae8fc;strokeColor=#6c8ebf;" edge="1" parent="1">
          <mxGeometry width="50" height="50" relative="1" as="geometry">
            <mxPoint x="20" y="390" as="sourcePoint" />
            <mxPoint x="330" y="390" as="targetPoint" />
          </mxGeometry>
        </mxCell>
        <mxCell id="bL9sHLg3ZVzQQd68nAyV-3" value="" style="ellipse;whiteSpace=wrap;html=1;aspect=fixed;fillColor=#dae8fc;strokeColor=#6c8ebf;" vertex="1" parent="1">
          <mxGeometry x="100" y="330" width="20" height="20" as="geometry" />
        </mxCell>
        <mxCell id="bL9sHLg3ZVzQQd68nAyV-4" value="" style="endArrow=none;html=1;rounded=0;entryX=0.5;entryY=1;entryDx=0;entryDy=0;fillColor=#dae8fc;strokeColor=#6c8ebf;" edge="1" parent="1" target="bL9sHLg3ZVzQQd68nAyV-3">
          <mxGeometry width="50" height="50" relative="1" as="geometry">
            <mxPoint x="110" y="370" as="sourcePoint" />
            <mxPoint x="330" y="390" as="targetPoint" />
          </mxGeometry>
        </mxCell>
        <mxCell id="bL9sHLg3ZVzQQd68nAyV-5" value="" style="endArrow=none;html=1;rounded=0;entryX=0.5;entryY=1;entryDx=0;entryDy=0;fillColor=#dae8fc;strokeColor=#6c8ebf;" edge="1" parent="1">
          <mxGeometry width="50" height="50" relative="1" as="geometry">
            <mxPoint x="100" y="390" as="sourcePoint" />
            <mxPoint x="109.71000000000004" y="370" as="targetPoint" />
          </mxGeometry>
        </mxCell>
        <mxCell id="bL9sHLg3ZVzQQd68nAyV-6" value="" style="endArrow=none;html=1;rounded=0;fillColor=#dae8fc;strokeColor=#6c8ebf;" edge="1" parent="1">
          <mxGeometry width="50" height="50" relative="1" as="geometry">
            <mxPoint x="120" y="390" as="sourcePoint" />
            <mxPoint x="110" y="370" as="targetPoint" />
          </mxGeometry>
        </mxCell>
        <mxCell id="bL9sHLg3ZVzQQd68nAyV-7" value="" style="endArrow=none;dashed=1;html=1;rounded=0;fillColor=#fff2cc;strokeColor=#d6b656;startArrow=classic;startFill=1;entryX=1;entryY=0.5;entryDx=0;entryDy=0;" edge="1" parent="1" target="bL9sHLg3ZVzQQd68nAyV-3">
          <mxGeometry width="50" height="50" relative="1" as="geometry">
            <mxPoint x="270" y="280" as="sourcePoint" />
            <mxPoint x="120" y="280" as="targetPoint" />
          </mxGeometry>
        </mxCell>
        <mxCell id="bL9sHLg3ZVzQQd68nAyV-8" value="" style="endArrow=classic;html=1;rounded=0;fillColor=#fff2cc;strokeColor=#d6b656;dashed=1;" edge="1" parent="1">
          <mxGeometry width="50" height="50" relative="1" as="geometry">
            <mxPoint x="270" y="280" as="sourcePoint" />
            <mxPoint x="270" y="350" as="targetPoint" />
          </mxGeometry>
        </mxCell>
        <mxCell id="bL9sHLg3ZVzQQd68nAyV-9" value="" style="endArrow=none;html=1;rounded=0;fillColor=#dae8fc;strokeColor=#6c8ebf;" edge="1" parent="1">
          <mxGeometry width="50" height="50" relative="1" as="geometry">
            <mxPoint x="20" y="420" as="sourcePoint" />
            <mxPoint x="50" y="390" as="targetPoint" />
          </mxGeometry>
        </mxCell>
        <mxCell id="bL9sHLg3ZVzQQd68nAyV-10" value="" style="endArrow=none;html=1;rounded=0;fillColor=#dae8fc;strokeColor=#6c8ebf;" edge="1" parent="1">
          <mxGeometry width="50" height="50" relative="1" as="geometry">
            <mxPoint x="60" y="420" as="sourcePoint" />
            <mxPoint x="90" y="390" as="targetPoint" />
          </mxGeometry>
        </mxCell>
        <mxCell id="bL9sHLg3ZVzQQd68nAyV-11" value="" style="endArrow=none;html=1;rounded=0;fillColor=#dae8fc;strokeColor=#6c8ebf;" edge="1" parent="1">
          <mxGeometry width="50" height="50" relative="1" as="geometry">
            <mxPoint x="100" y="420" as="sourcePoint" />
            <mxPoint x="130" y="390" as="targetPoint" />
          </mxGeometry>
        </mxCell>
        <mxCell id="bL9sHLg3ZVzQQd68nAyV-12" value="" style="endArrow=none;html=1;rounded=0;fillColor=#dae8fc;strokeColor=#6c8ebf;" edge="1" parent="1">
          <mxGeometry width="50" height="50" relative="1" as="geometry">
            <mxPoint x="140" y="420" as="sourcePoint" />
            <mxPoint x="170" y="390" as="targetPoint" />
          </mxGeometry>
        </mxCell>
        <mxCell id="bL9sHLg3ZVzQQd68nAyV-13" value="" style="endArrow=none;html=1;rounded=0;fillColor=#dae8fc;strokeColor=#6c8ebf;" edge="1" parent="1">
          <mxGeometry width="50" height="50" relative="1" as="geometry">
            <mxPoint x="180" y="420" as="sourcePoint" />
            <mxPoint x="210" y="390" as="targetPoint" />
          </mxGeometry>
        </mxCell>
        <mxCell id="bL9sHLg3ZVzQQd68nAyV-14" value="" style="endArrow=none;html=1;rounded=0;fillColor=#dae8fc;strokeColor=#6c8ebf;" edge="1" parent="1">
          <mxGeometry width="50" height="50" relative="1" as="geometry">
            <mxPoint x="220" y="420" as="sourcePoint" />
            <mxPoint x="250" y="390" as="targetPoint" />
          </mxGeometry>
        </mxCell>
        <mxCell id="bL9sHLg3ZVzQQd68nAyV-15" value="" style="endArrow=none;html=1;rounded=0;fillColor=#dae8fc;strokeColor=#6c8ebf;" edge="1" parent="1">
          <mxGeometry width="50" height="50" relative="1" as="geometry">
            <mxPoint x="260" y="420" as="sourcePoint" />
            <mxPoint x="290" y="390" as="targetPoint" />
          </mxGeometry>
        </mxCell>
        <mxCell id="bL9sHLg3ZVzQQd68nAyV-16" value="" style="endArrow=none;html=1;rounded=0;fillColor=#dae8fc;strokeColor=#6c8ebf;" edge="1" parent="1">
          <mxGeometry width="50" height="50" relative="1" as="geometry">
            <mxPoint x="300" y="420" as="sourcePoint" />
            <mxPoint x="330" y="390" as="targetPoint" />
          </mxGeometry>
        </mxCell>
        <UserObject label="&lt;font color=&quot;#c3abd0&quot;&gt;NBActor&lt;/font&gt;" treeRoot="1" id="bL9sHLg3ZVzQQd68nAyV-18">
          <mxCell style="whiteSpace=wrap;html=1;align=center;treeFolding=1;treeMoving=1;newEdgeStyle={&quot;edgeStyle&quot;:&quot;elbowEdgeStyle&quot;,&quot;startArrow&quot;:&quot;none&quot;,&quot;endArrow&quot;:&quot;none&quot;};fillColor=#e1d5e7;strokeColor=#9673a6;" vertex="1" parent="1">
            <mxGeometry x="220" y="350" width="100" height="40" as="geometry" />
          </mxCell>
        </UserObject>
        <mxCell id="bL9sHLg3ZVzQQd68nAyV-19" value="Check Target Ground Filter" style="whiteSpace=wrap;html=1;shape=partialRectangle;top=0;left=0;bottom=1;right=0;points=[[0,1],[1,1]];fillColor=none;align=center;verticalAlign=bottom;routingCenterY=0.5;snapToPoint=1;recursiveResize=0;autosize=1;treeFolding=1;treeMoving=1;newEdgeStyle={&quot;edgeStyle&quot;:&quot;entityRelationEdgeStyle&quot;,&quot;startArrow&quot;:&quot;none&quot;,&quot;endArrow&quot;:&quot;none&quot;,&quot;segment&quot;:10,&quot;curved&quot;:1,&quot;sourcePerimeterSpacing&quot;:0,&quot;targetPerimeterSpacing&quot;:0};fontColor=#006EAF;strokeColor=#006EAF;" vertex="1" parent="1">
          <mxGeometry x="310" y="300" width="90" height="30" as="geometry" />
        </mxCell>
        <mxCell id="bL9sHLg3ZVzQQd68nAyV-20" value="" style="edgeStyle=entityRelationEdgeStyle;startArrow=none;endArrow=none;segment=10;curved=1;sourcePerimeterSpacing=0;targetPerimeterSpacing=0;rounded=0;fontColor=#C3ABD0;strokeColor=#006EAF;" edge="1" target="bL9sHLg3ZVzQQd68nAyV-19" parent="1">
          <mxGeometry relative="1" as="geometry">
            <mxPoint x="290" y="350" as="sourcePoint" />
          </mxGeometry>
        </mxCell>
        <UserObject label="" treeRoot="1" id="bL9sHLg3ZVzQQd68nAyV-21">
          <mxCell style="whiteSpace=wrap;html=1;align=center;treeFolding=1;treeMoving=1;newEdgeStyle={&quot;edgeStyle&quot;:&quot;elbowEdgeStyle&quot;,&quot;startArrow&quot;:&quot;none&quot;,&quot;endArrow&quot;:&quot;none&quot;};fillColor=#FFFFFF;strokeColor=#d6b656;" vertex="1" parent="1">
            <mxGeometry x="279" y="556" width="40" height="30" as="geometry" />
          </mxCell>
        </UserObject>
        <mxCell id="bL9sHLg3ZVzQQd68nAyV-22" value="" style="endArrow=none;html=1;rounded=0;fillColor=#dae8fc;strokeColor=#6c8ebf;" edge="1" parent="1">
          <mxGeometry width="50" height="50" relative="1" as="geometry">
            <mxPoint x="49" y="586" as="sourcePoint" />
            <mxPoint x="239" y="586" as="targetPoint" />
          </mxGeometry>
        </mxCell>
        <mxCell id="bL9sHLg3ZVzQQd68nAyV-23" value="" style="ellipse;whiteSpace=wrap;html=1;aspect=fixed;fillColor=#dae8fc;strokeColor=#6c8ebf;" vertex="1" parent="1">
          <mxGeometry x="129" y="526" width="20" height="20" as="geometry" />
        </mxCell>
        <mxCell id="bL9sHLg3ZVzQQd68nAyV-24" value="" style="endArrow=none;html=1;rounded=0;entryX=0.5;entryY=1;entryDx=0;entryDy=0;fillColor=#dae8fc;strokeColor=#6c8ebf;" edge="1" parent="1" target="bL9sHLg3ZVzQQd68nAyV-23">
          <mxGeometry width="50" height="50" relative="1" as="geometry">
            <mxPoint x="139" y="566" as="sourcePoint" />
            <mxPoint x="359" y="586" as="targetPoint" />
          </mxGeometry>
        </mxCell>
        <mxCell id="bL9sHLg3ZVzQQd68nAyV-25" value="" style="endArrow=none;html=1;rounded=0;entryX=0.5;entryY=1;entryDx=0;entryDy=0;fillColor=#dae8fc;strokeColor=#6c8ebf;" edge="1" parent="1">
          <mxGeometry width="50" height="50" relative="1" as="geometry">
            <mxPoint x="129" y="586" as="sourcePoint" />
            <mxPoint x="138.71000000000004" y="566" as="targetPoint" />
          </mxGeometry>
        </mxCell>
        <mxCell id="bL9sHLg3ZVzQQd68nAyV-26" value="" style="endArrow=none;html=1;rounded=0;fillColor=#dae8fc;strokeColor=#6c8ebf;" edge="1" parent="1">
          <mxGeometry width="50" height="50" relative="1" as="geometry">
            <mxPoint x="149" y="586" as="sourcePoint" />
            <mxPoint x="139" y="566" as="targetPoint" />
          </mxGeometry>
        </mxCell>
        <mxCell id="bL9sHLg3ZVzQQd68nAyV-27" value="" style="endArrow=none;dashed=1;html=1;rounded=0;fillColor=#fff2cc;strokeColor=#d6b656;startArrow=classic;startFill=1;entryX=1;entryY=0.5;entryDx=0;entryDy=0;" edge="1" parent="1" target="bL9sHLg3ZVzQQd68nAyV-23">
          <mxGeometry width="50" height="50" relative="1" as="geometry">
            <mxPoint x="299" y="475.9999999999999" as="sourcePoint" />
            <mxPoint x="149" y="476" as="targetPoint" />
          </mxGeometry>
        </mxCell>
        <mxCell id="bL9sHLg3ZVzQQd68nAyV-28" value="" style="endArrow=classic;html=1;rounded=0;fillColor=#fff2cc;strokeColor=#d6b656;dashed=1;entryX=0.5;entryY=1;entryDx=0;entryDy=0;" edge="1" parent="1" target="bL9sHLg3ZVzQQd68nAyV-21">
          <mxGeometry width="50" height="50" relative="1" as="geometry">
            <mxPoint x="299" y="475.9999999999999" as="sourcePoint" />
            <mxPoint x="299" y="545.9999999999999" as="targetPoint" />
          </mxGeometry>
        </mxCell>
        <mxCell id="bL9sHLg3ZVzQQd68nAyV-29" value="" style="endArrow=none;html=1;rounded=0;fillColor=#dae8fc;strokeColor=#6c8ebf;" edge="1" parent="1">
          <mxGeometry width="50" height="50" relative="1" as="geometry">
            <mxPoint x="49" y="616" as="sourcePoint" />
            <mxPoint x="79" y="586" as="targetPoint" />
          </mxGeometry>
        </mxCell>
        <mxCell id="bL9sHLg3ZVzQQd68nAyV-30" value="" style="endArrow=none;html=1;rounded=0;fillColor=#dae8fc;strokeColor=#6c8ebf;" edge="1" parent="1">
          <mxGeometry width="50" height="50" relative="1" as="geometry">
            <mxPoint x="89" y="616" as="sourcePoint" />
            <mxPoint x="119" y="586" as="targetPoint" />
          </mxGeometry>
        </mxCell>
        <mxCell id="bL9sHLg3ZVzQQd68nAyV-31" value="" style="endArrow=none;html=1;rounded=0;fillColor=#dae8fc;strokeColor=#6c8ebf;" edge="1" parent="1">
          <mxGeometry width="50" height="50" relative="1" as="geometry">
            <mxPoint x="129" y="616" as="sourcePoint" />
            <mxPoint x="159" y="586" as="targetPoint" />
          </mxGeometry>
        </mxCell>
        <mxCell id="bL9sHLg3ZVzQQd68nAyV-32" value="" style="endArrow=none;html=1;rounded=0;fillColor=#dae8fc;strokeColor=#6c8ebf;" edge="1" parent="1">
          <mxGeometry width="50" height="50" relative="1" as="geometry">
            <mxPoint x="169" y="616" as="sourcePoint" />
            <mxPoint x="199" y="586" as="targetPoint" />
          </mxGeometry>
        </mxCell>
        <mxCell id="bL9sHLg3ZVzQQd68nAyV-33" value="" style="endArrow=none;html=1;rounded=0;fillColor=#dae8fc;strokeColor=#6c8ebf;" edge="1" parent="1">
          <mxGeometry width="50" height="50" relative="1" as="geometry">
            <mxPoint x="209" y="616" as="sourcePoint" />
            <mxPoint x="239" y="586" as="targetPoint" />
          </mxGeometry>
        </mxCell>
        <mxCell id="bL9sHLg3ZVzQQd68nAyV-34" value="" style="endArrow=none;html=1;rounded=0;fillColor=#dae8fc;strokeColor=#6c8ebf;" edge="1" parent="1">
          <mxGeometry width="50" height="50" relative="1" as="geometry">
            <mxPoint x="249" y="616" as="sourcePoint" />
            <mxPoint x="279" y="586" as="targetPoint" />
          </mxGeometry>
        </mxCell>
        <mxCell id="bL9sHLg3ZVzQQd68nAyV-35" value="" style="endArrow=none;html=1;rounded=0;fillColor=#dae8fc;strokeColor=#6c8ebf;" edge="1" parent="1">
          <mxGeometry width="50" height="50" relative="1" as="geometry">
            <mxPoint x="259" y="586" as="sourcePoint" />
            <mxPoint x="359" y="586" as="targetPoint" />
          </mxGeometry>
        </mxCell>
        <mxCell id="bL9sHLg3ZVzQQd68nAyV-40" value="" style="endArrow=none;html=1;rounded=0;strokeColor=#006EAF;fontColor=#006EAF;" edge="1" parent="1">
          <mxGeometry width="50" height="50" relative="1" as="geometry">
            <mxPoint x="239" y="586" as="sourcePoint" />
            <mxPoint x="239" y="506" as="targetPoint" />
          </mxGeometry>
        </mxCell>
        <mxCell id="bL9sHLg3ZVzQQd68nAyV-41" value="" style="endArrow=none;html=1;rounded=0;strokeColor=#006EAF;fontColor=#006EAF;" edge="1" parent="1">
          <mxGeometry width="50" height="50" relative="1" as="geometry">
            <mxPoint x="259" y="586" as="sourcePoint" />
            <mxPoint x="259" y="506" as="targetPoint" />
          </mxGeometry>
        </mxCell>
        <mxCell id="bL9sHLg3ZVzQQd68nAyV-42" value="" style="endArrow=none;html=1;rounded=0;strokeColor=#006EAF;fontColor=#006EAF;" edge="1" parent="1">
          <mxGeometry width="50" height="50" relative="1" as="geometry">
            <mxPoint x="239" y="506" as="sourcePoint" />
            <mxPoint x="259" y="506" as="targetPoint" />
          </mxGeometry>
        </mxCell>
        <mxCell id="bL9sHLg3ZVzQQd68nAyV-43" value="" style="endArrow=none;html=1;rounded=0;fillColor=#dae8fc;strokeColor=#6c8ebf;" edge="1" parent="1">
          <mxGeometry width="50" height="50" relative="1" as="geometry">
            <mxPoint x="289" y="616" as="sourcePoint" />
            <mxPoint x="319" y="586" as="targetPoint" />
          </mxGeometry>
        </mxCell>
        <mxCell id="bL9sHLg3ZVzQQd68nAyV-44" value="可以穿墙类型处理" style="text;html=1;strokeColor=none;fillColor=none;align=center;verticalAlign=middle;whiteSpace=wrap;rounded=0;fontColor=#006EAF;" vertex="1" parent="1">
          <mxGeometry x="149" y="646" width="110" height="20" as="geometry" />
        </mxCell>
        <UserObject label="" treeRoot="1" id="bL9sHLg3ZVzQQd68nAyV-45">
          <mxCell style="whiteSpace=wrap;html=1;align=center;treeFolding=1;treeMoving=1;newEdgeStyle={&quot;edgeStyle&quot;:&quot;elbowEdgeStyle&quot;,&quot;startArrow&quot;:&quot;none&quot;,&quot;endArrow&quot;:&quot;none&quot;};fillColor=#FFFFFF;strokeColor=#d6b656;" vertex="1" parent="1">
            <mxGeometry x="620" y="357" width="40" height="30" as="geometry" />
          </mxCell>
        </UserObject>
        <mxCell id="bL9sHLg3ZVzQQd68nAyV-46" value="" style="endArrow=none;html=1;rounded=0;fillColor=#dae8fc;strokeColor=#6c8ebf;" edge="1" parent="1">
          <mxGeometry width="50" height="50" relative="1" as="geometry">
            <mxPoint x="470" y="387" as="sourcePoint" />
            <mxPoint x="660" y="387" as="targetPoint" />
          </mxGeometry>
        </mxCell>
        <mxCell id="bL9sHLg3ZVzQQd68nAyV-47" value="" style="ellipse;whiteSpace=wrap;html=1;aspect=fixed;fillColor=#dae8fc;strokeColor=#6c8ebf;" vertex="1" parent="1">
          <mxGeometry x="550" y="327" width="20" height="20" as="geometry" />
        </mxCell>
        <mxCell id="bL9sHLg3ZVzQQd68nAyV-48" value="" style="endArrow=none;html=1;rounded=0;entryX=0.5;entryY=1;entryDx=0;entryDy=0;fillColor=#dae8fc;strokeColor=#6c8ebf;" edge="1" parent="1" target="bL9sHLg3ZVzQQd68nAyV-47">
          <mxGeometry width="50" height="50" relative="1" as="geometry">
            <mxPoint x="560" y="367" as="sourcePoint" />
            <mxPoint x="780" y="387" as="targetPoint" />
          </mxGeometry>
        </mxCell>
        <mxCell id="bL9sHLg3ZVzQQd68nAyV-49" value="" style="endArrow=none;html=1;rounded=0;entryX=0.5;entryY=1;entryDx=0;entryDy=0;fillColor=#dae8fc;strokeColor=#6c8ebf;" edge="1" parent="1">
          <mxGeometry width="50" height="50" relative="1" as="geometry">
            <mxPoint x="550" y="387" as="sourcePoint" />
            <mxPoint x="559.71" y="367" as="targetPoint" />
          </mxGeometry>
        </mxCell>
        <mxCell id="bL9sHLg3ZVzQQd68nAyV-50" value="" style="endArrow=none;html=1;rounded=0;fillColor=#dae8fc;strokeColor=#6c8ebf;" edge="1" parent="1">
          <mxGeometry width="50" height="50" relative="1" as="geometry">
            <mxPoint x="570" y="387" as="sourcePoint" />
            <mxPoint x="560" y="367" as="targetPoint" />
          </mxGeometry>
        </mxCell>
        <mxCell id="bL9sHLg3ZVzQQd68nAyV-51" value="" style="endArrow=none;dashed=1;html=1;rounded=0;fillColor=#fff2cc;strokeColor=#d6b656;startArrow=classic;startFill=1;entryX=1;entryY=0.5;entryDx=0;entryDy=0;" edge="1" parent="1" target="bL9sHLg3ZVzQQd68nAyV-47">
          <mxGeometry width="50" height="50" relative="1" as="geometry">
            <mxPoint x="730" y="300" as="sourcePoint" />
            <mxPoint x="570" y="277" as="targetPoint" />
          </mxGeometry>
        </mxCell>
        <mxCell id="bL9sHLg3ZVzQQd68nAyV-52" value="" style="endArrow=classic;html=1;rounded=0;fillColor=#fff2cc;strokeColor=#d6b656;dashed=1;" edge="1" parent="1">
          <mxGeometry width="50" height="50" relative="1" as="geometry">
            <mxPoint x="660" y="320" as="sourcePoint" />
            <mxPoint x="660" y="380" as="targetPoint" />
          </mxGeometry>
        </mxCell>
        <mxCell id="bL9sHLg3ZVzQQd68nAyV-53" value="" style="endArrow=none;html=1;rounded=0;fillColor=#dae8fc;strokeColor=#6c8ebf;" edge="1" parent="1">
          <mxGeometry width="50" height="50" relative="1" as="geometry">
            <mxPoint x="470" y="417" as="sourcePoint" />
            <mxPoint x="500" y="387" as="targetPoint" />
          </mxGeometry>
        </mxCell>
        <mxCell id="bL9sHLg3ZVzQQd68nAyV-54" value="" style="endArrow=none;html=1;rounded=0;fillColor=#dae8fc;strokeColor=#6c8ebf;" edge="1" parent="1">
          <mxGeometry width="50" height="50" relative="1" as="geometry">
            <mxPoint x="510" y="417" as="sourcePoint" />
            <mxPoint x="540" y="387" as="targetPoint" />
          </mxGeometry>
        </mxCell>
        <mxCell id="bL9sHLg3ZVzQQd68nAyV-55" value="" style="endArrow=none;html=1;rounded=0;fillColor=#dae8fc;strokeColor=#6c8ebf;" edge="1" parent="1">
          <mxGeometry width="50" height="50" relative="1" as="geometry">
            <mxPoint x="550" y="417" as="sourcePoint" />
            <mxPoint x="580" y="387" as="targetPoint" />
          </mxGeometry>
        </mxCell>
        <mxCell id="bL9sHLg3ZVzQQd68nAyV-56" value="" style="endArrow=none;html=1;rounded=0;fillColor=#dae8fc;strokeColor=#6c8ebf;" edge="1" parent="1">
          <mxGeometry width="50" height="50" relative="1" as="geometry">
            <mxPoint x="590" y="417" as="sourcePoint" />
            <mxPoint x="620" y="387" as="targetPoint" />
          </mxGeometry>
        </mxCell>
        <mxCell id="bL9sHLg3ZVzQQd68nAyV-57" value="" style="endArrow=none;html=1;rounded=0;fillColor=#dae8fc;strokeColor=#6c8ebf;" edge="1" parent="1">
          <mxGeometry width="50" height="50" relative="1" as="geometry">
            <mxPoint x="630" y="417" as="sourcePoint" />
            <mxPoint x="660" y="387" as="targetPoint" />
          </mxGeometry>
        </mxCell>
        <mxCell id="bL9sHLg3ZVzQQd68nAyV-58" value="" style="endArrow=none;html=1;rounded=0;fillColor=#dae8fc;strokeColor=#6c8ebf;" edge="1" parent="1">
          <mxGeometry width="50" height="50" relative="1" as="geometry">
            <mxPoint x="670" y="417" as="sourcePoint" />
            <mxPoint x="700" y="387" as="targetPoint" />
          </mxGeometry>
        </mxCell>
        <mxCell id="bL9sHLg3ZVzQQd68nAyV-59" value="" style="endArrow=none;html=1;rounded=0;fillColor=#dae8fc;strokeColor=#6c8ebf;" edge="1" parent="1">
          <mxGeometry width="50" height="50" relative="1" as="geometry">
            <mxPoint x="680" y="387" as="sourcePoint" />
            <mxPoint x="780" y="387" as="targetPoint" />
          </mxGeometry>
        </mxCell>
        <mxCell id="bL9sHLg3ZVzQQd68nAyV-60" value="" style="endArrow=none;html=1;rounded=0;strokeColor=#006EAF;fontColor=#006EAF;startArrow=none;" edge="1" parent="1" source="bL9sHLg3ZVzQQd68nAyV-67">
          <mxGeometry width="50" height="50" relative="1" as="geometry">
            <mxPoint x="660" y="387" as="sourcePoint" />
            <mxPoint x="660" y="307" as="targetPoint" />
          </mxGeometry>
        </mxCell>
        <mxCell id="bL9sHLg3ZVzQQd68nAyV-61" value="" style="endArrow=none;html=1;rounded=0;strokeColor=#006EAF;fontColor=#006EAF;" edge="1" parent="1">
          <mxGeometry width="50" height="50" relative="1" as="geometry">
            <mxPoint x="680" y="387" as="sourcePoint" />
            <mxPoint x="680" y="307" as="targetPoint" />
          </mxGeometry>
        </mxCell>
        <mxCell id="bL9sHLg3ZVzQQd68nAyV-62" value="" style="endArrow=none;html=1;rounded=0;strokeColor=#006EAF;fontColor=#006EAF;" edge="1" parent="1">
          <mxGeometry width="50" height="50" relative="1" as="geometry">
            <mxPoint x="660" y="307" as="sourcePoint" />
            <mxPoint x="680" y="307" as="targetPoint" />
          </mxGeometry>
        </mxCell>
        <mxCell id="bL9sHLg3ZVzQQd68nAyV-63" value="" style="endArrow=none;html=1;rounded=0;fillColor=#dae8fc;strokeColor=#6c8ebf;" edge="1" parent="1">
          <mxGeometry width="50" height="50" relative="1" as="geometry">
            <mxPoint x="710" y="417" as="sourcePoint" />
            <mxPoint x="740" y="387" as="targetPoint" />
          </mxGeometry>
        </mxCell>
        <mxCell id="bL9sHLg3ZVzQQd68nAyV-65" value="maxRange" style="text;html=1;strokeColor=none;fillColor=none;align=center;verticalAlign=middle;whiteSpace=wrap;rounded=0;fontColor=#006EAF;" vertex="1" parent="1">
          <mxGeometry x="199" y="250" width="60" height="30" as="geometry" />
        </mxCell>
        <mxCell id="bL9sHLg3ZVzQQd68nAyV-66" value="" style="endArrow=none;html=1;rounded=0;strokeColor=#006EAF;fontColor=#006EAF;" edge="1" parent="1" target="bL9sHLg3ZVzQQd68nAyV-67">
          <mxGeometry width="50" height="50" relative="1" as="geometry">
            <mxPoint x="660" y="387" as="sourcePoint" />
            <mxPoint x="660" y="307" as="targetPoint" />
          </mxGeometry>
        </mxCell>
        <mxCell id="bL9sHLg3ZVzQQd68nAyV-67" value="" style="shape=waypoint;sketch=0;fillStyle=solid;size=6;pointerEvents=1;points=[];fillColor=none;resizable=0;rotatable=0;perimeter=centerPerimeter;snapToPoint=1;strokeColor=#EA6B66;fontColor=#006EAF;" vertex="1" parent="1">
          <mxGeometry x="650" y="306" width="20" height="20" as="geometry" />
        </mxCell>
        <mxCell id="bL9sHLg3ZVzQQd68nAyV-68" value="" style="endArrow=classic;html=1;rounded=0;strokeColor=#d6b656;fontColor=#006EAF;fillColor=#fff2cc;dashed=1;" edge="1" parent="1">
          <mxGeometry width="50" height="50" relative="1" as="geometry">
            <mxPoint x="660" y="371.83" as="sourcePoint" />
            <mxPoint x="640" y="371.83" as="targetPoint" />
          </mxGeometry>
        </mxCell>
        <mxCell id="bL9sHLg3ZVzQQd68nAyV-69" value="maxRange" style="text;html=1;strokeColor=none;fillColor=none;align=center;verticalAlign=middle;whiteSpace=wrap;rounded=0;fontColor=#006EAF;" vertex="1" parent="1">
          <mxGeometry x="670" y="270" width="60" height="30" as="geometry" />
        </mxCell>
        <UserObject label="" treeRoot="1" id="bL9sHLg3ZVzQQd68nAyV-70">
          <mxCell style="whiteSpace=wrap;html=1;align=center;treeFolding=1;treeMoving=1;newEdgeStyle={&quot;edgeStyle&quot;:&quot;elbowEdgeStyle&quot;,&quot;startArrow&quot;:&quot;none&quot;,&quot;endArrow&quot;:&quot;none&quot;};fillColor=#FFFFFF;strokeColor=#d6b656;dashed=1;" vertex="1" parent="1">
            <mxGeometry x="698" y="556" width="40" height="30" as="geometry" />
          </mxCell>
        </UserObject>
        <mxCell id="bL9sHLg3ZVzQQd68nAyV-71" value="" style="endArrow=none;html=1;rounded=0;fillColor=#dae8fc;strokeColor=#6c8ebf;" edge="1" parent="1">
          <mxGeometry width="50" height="50" relative="1" as="geometry">
            <mxPoint x="468" y="586" as="sourcePoint" />
            <mxPoint x="658" y="586" as="targetPoint" />
          </mxGeometry>
        </mxCell>
        <mxCell id="bL9sHLg3ZVzQQd68nAyV-72" value="" style="ellipse;whiteSpace=wrap;html=1;aspect=fixed;fillColor=#dae8fc;strokeColor=#6c8ebf;" vertex="1" parent="1">
          <mxGeometry x="548" y="526" width="20" height="20" as="geometry" />
        </mxCell>
        <mxCell id="bL9sHLg3ZVzQQd68nAyV-73" value="" style="endArrow=none;html=1;rounded=0;entryX=0.5;entryY=1;entryDx=0;entryDy=0;fillColor=#dae8fc;strokeColor=#6c8ebf;" edge="1" parent="1" target="bL9sHLg3ZVzQQd68nAyV-72">
          <mxGeometry width="50" height="50" relative="1" as="geometry">
            <mxPoint x="558" y="566" as="sourcePoint" />
            <mxPoint x="778" y="586" as="targetPoint" />
          </mxGeometry>
        </mxCell>
        <mxCell id="bL9sHLg3ZVzQQd68nAyV-74" value="" style="endArrow=none;html=1;rounded=0;entryX=0.5;entryY=1;entryDx=0;entryDy=0;fillColor=#dae8fc;strokeColor=#6c8ebf;" edge="1" parent="1">
          <mxGeometry width="50" height="50" relative="1" as="geometry">
            <mxPoint x="548" y="586" as="sourcePoint" />
            <mxPoint x="557.71" y="566" as="targetPoint" />
          </mxGeometry>
        </mxCell>
        <mxCell id="bL9sHLg3ZVzQQd68nAyV-75" value="" style="endArrow=none;html=1;rounded=0;fillColor=#dae8fc;strokeColor=#6c8ebf;" edge="1" parent="1">
          <mxGeometry width="50" height="50" relative="1" as="geometry">
            <mxPoint x="568" y="586" as="sourcePoint" />
            <mxPoint x="558" y="566" as="targetPoint" />
          </mxGeometry>
        </mxCell>
        <mxCell id="bL9sHLg3ZVzQQd68nAyV-76" value="" style="endArrow=none;dashed=1;html=1;rounded=0;fillColor=#fff2cc;strokeColor=#d6b656;startArrow=classic;startFill=1;entryX=1;entryY=0.5;entryDx=0;entryDy=0;" edge="1" parent="1" target="bL9sHLg3ZVzQQd68nAyV-72">
          <mxGeometry width="50" height="50" relative="1" as="geometry">
            <mxPoint x="718" y="476" as="sourcePoint" />
            <mxPoint x="568" y="476" as="targetPoint" />
          </mxGeometry>
        </mxCell>
        <mxCell id="bL9sHLg3ZVzQQd68nAyV-77" value="" style="endArrow=classic;html=1;rounded=0;fillColor=#fff2cc;strokeColor=#d6b656;dashed=1;entryX=0.5;entryY=1;entryDx=0;entryDy=0;" edge="1" parent="1" target="bL9sHLg3ZVzQQd68nAyV-70">
          <mxGeometry width="50" height="50" relative="1" as="geometry">
            <mxPoint x="718" y="476" as="sourcePoint" />
            <mxPoint x="718" y="545.9999999999999" as="targetPoint" />
          </mxGeometry>
        </mxCell>
        <mxCell id="bL9sHLg3ZVzQQd68nAyV-78" value="" style="endArrow=none;html=1;rounded=0;fillColor=#dae8fc;strokeColor=#6c8ebf;" edge="1" parent="1">
          <mxGeometry width="50" height="50" relative="1" as="geometry">
            <mxPoint x="468" y="616" as="sourcePoint" />
            <mxPoint x="498" y="586" as="targetPoint" />
          </mxGeometry>
        </mxCell>
        <mxCell id="bL9sHLg3ZVzQQd68nAyV-79" value="" style="endArrow=none;html=1;rounded=0;fillColor=#dae8fc;strokeColor=#6c8ebf;" edge="1" parent="1">
          <mxGeometry width="50" height="50" relative="1" as="geometry">
            <mxPoint x="508" y="616" as="sourcePoint" />
            <mxPoint x="538" y="586" as="targetPoint" />
          </mxGeometry>
        </mxCell>
        <mxCell id="bL9sHLg3ZVzQQd68nAyV-80" value="" style="endArrow=none;html=1;rounded=0;fillColor=#dae8fc;strokeColor=#6c8ebf;" edge="1" parent="1">
          <mxGeometry width="50" height="50" relative="1" as="geometry">
            <mxPoint x="548" y="616" as="sourcePoint" />
            <mxPoint x="578" y="586" as="targetPoint" />
          </mxGeometry>
        </mxCell>
        <mxCell id="bL9sHLg3ZVzQQd68nAyV-81" value="" style="endArrow=none;html=1;rounded=0;fillColor=#dae8fc;strokeColor=#6c8ebf;" edge="1" parent="1">
          <mxGeometry width="50" height="50" relative="1" as="geometry">
            <mxPoint x="588" y="616" as="sourcePoint" />
            <mxPoint x="618" y="586" as="targetPoint" />
          </mxGeometry>
        </mxCell>
        <mxCell id="bL9sHLg3ZVzQQd68nAyV-82" value="" style="endArrow=none;html=1;rounded=0;fillColor=#dae8fc;strokeColor=#6c8ebf;" edge="1" parent="1">
          <mxGeometry width="50" height="50" relative="1" as="geometry">
            <mxPoint x="628" y="616" as="sourcePoint" />
            <mxPoint x="658" y="586" as="targetPoint" />
          </mxGeometry>
        </mxCell>
        <mxCell id="bL9sHLg3ZVzQQd68nAyV-83" value="" style="endArrow=none;html=1;rounded=0;fillColor=#dae8fc;strokeColor=#6c8ebf;" edge="1" parent="1">
          <mxGeometry width="50" height="50" relative="1" as="geometry">
            <mxPoint x="668" y="616" as="sourcePoint" />
            <mxPoint x="698" y="586" as="targetPoint" />
          </mxGeometry>
        </mxCell>
        <mxCell id="bL9sHLg3ZVzQQd68nAyV-84" value="" style="endArrow=none;html=1;rounded=0;fillColor=#dae8fc;strokeColor=#6c8ebf;" edge="1" parent="1">
          <mxGeometry width="50" height="50" relative="1" as="geometry">
            <mxPoint x="678" y="586" as="sourcePoint" />
            <mxPoint x="778" y="586" as="targetPoint" />
          </mxGeometry>
        </mxCell>
        <mxCell id="bL9sHLg3ZVzQQd68nAyV-85" value="" style="endArrow=none;html=1;rounded=0;strokeColor=#006EAF;fontColor=#006EAF;" edge="1" parent="1">
          <mxGeometry width="50" height="50" relative="1" as="geometry">
            <mxPoint x="658" y="586" as="sourcePoint" />
            <mxPoint x="658" y="506" as="targetPoint" />
          </mxGeometry>
        </mxCell>
        <mxCell id="bL9sHLg3ZVzQQd68nAyV-86" value="" style="endArrow=none;html=1;rounded=0;strokeColor=#006EAF;fontColor=#006EAF;" edge="1" parent="1">
          <mxGeometry width="50" height="50" relative="1" as="geometry">
            <mxPoint x="678" y="586" as="sourcePoint" />
            <mxPoint x="678" y="506" as="targetPoint" />
          </mxGeometry>
        </mxCell>
        <mxCell id="bL9sHLg3ZVzQQd68nAyV-87" value="" style="endArrow=none;html=1;rounded=0;strokeColor=#006EAF;fontColor=#006EAF;" edge="1" parent="1">
          <mxGeometry width="50" height="50" relative="1" as="geometry">
            <mxPoint x="658" y="506" as="sourcePoint" />
            <mxPoint x="678" y="506" as="targetPoint" />
          </mxGeometry>
        </mxCell>
        <mxCell id="bL9sHLg3ZVzQQd68nAyV-88" value="" style="endArrow=none;html=1;rounded=0;fillColor=#dae8fc;strokeColor=#6c8ebf;" edge="1" parent="1">
          <mxGeometry width="50" height="50" relative="1" as="geometry">
            <mxPoint x="708" y="616" as="sourcePoint" />
            <mxPoint x="738" y="586" as="targetPoint" />
          </mxGeometry>
        </mxCell>
        <mxCell id="bL9sHLg3ZVzQQd68nAyV-89" value="不可穿墙类型处理" style="text;html=1;strokeColor=none;fillColor=none;align=center;verticalAlign=middle;whiteSpace=wrap;rounded=0;fontColor=#006EAF;" vertex="1" parent="1">
          <mxGeometry x="588" y="646" width="110" height="20" as="geometry" />
        </mxCell>
        <mxCell id="bL9sHLg3ZVzQQd68nAyV-91" value="" style="endArrow=classic;html=1;rounded=0;dashed=1;strokeColor=#d6b656;fontColor=#006EAF;exitDx=0;exitDy=0;fillColor=#fff2cc;startArrow=none;" edge="1" parent="1" source="bL9sHLg3ZVzQQd68nAyV-93">
          <mxGeometry width="50" height="50" relative="1" as="geometry">
            <mxPoint x="540" y="576" as="sourcePoint" />
            <mxPoint x="570" y="536" as="targetPoint" />
          </mxGeometry>
        </mxCell>
        <mxCell id="bL9sHLg3ZVzQQd68nAyV-92" value="" style="endArrow=none;html=1;rounded=0;dashed=1;strokeColor=#d6b656;fontColor=#006EAF;exitX=0.5;exitY=1;exitDx=0;exitDy=0;fillColor=#fff2cc;" edge="1" parent="1" source="bL9sHLg3ZVzQQd68nAyV-70" target="bL9sHLg3ZVzQQd68nAyV-93">
          <mxGeometry width="50" height="50" relative="1" as="geometry">
            <mxPoint x="717.9999999999998" y="586" as="sourcePoint" />
            <mxPoint x="570" y="536" as="targetPoint" />
          </mxGeometry>
        </mxCell>
        <mxCell id="bL9sHLg3ZVzQQd68nAyV-96" value="" style="endArrow=classic;html=1;rounded=0;dashed=1;strokeColor=#d6b656;fontColor=#006EAF;fillColor=#fff2cc;" edge="1" parent="1">
          <mxGeometry width="50" height="50" relative="1" as="geometry">
            <mxPoint x="658" y="566" as="sourcePoint" />
            <mxPoint x="658" y="586" as="targetPoint" />
          </mxGeometry>
        </mxCell>
        <mxCell id="bL9sHLg3ZVzQQd68nAyV-93" value="" style="shape=waypoint;sketch=0;fillStyle=solid;size=6;pointerEvents=1;points=[];fillColor=none;resizable=0;rotatable=0;perimeter=centerPerimeter;snapToPoint=1;strokeColor=#EA6B66;fontColor=#006EAF;" vertex="1" parent="1">
          <mxGeometry x="648" y="556" width="20" height="20" as="geometry" />
        </mxCell>
        <mxCell id="bL9sHLg3ZVzQQd68nAyV-99" value="" style="endArrow=classic;html=1;rounded=0;strokeColor=#d6b656;fontColor=#006EAF;fillColor=#fff2cc;dashed=1;" edge="1" parent="1">
          <mxGeometry width="50" height="50" relative="1" as="geometry">
            <mxPoint x="657" y="570.8599999999999" as="sourcePoint" />
            <mxPoint x="637" y="570.8599999999999" as="targetPoint" />
          </mxGeometry>
        </mxCell>
        <mxCell id="bL9sHLg3ZVzQQd68nAyV-100" value="maxRange" style="text;html=1;strokeColor=none;fillColor=none;align=center;verticalAlign=middle;whiteSpace=wrap;rounded=0;fontColor=#006EAF;" vertex="1" parent="1">
          <mxGeometry x="250" y="448" width="60" height="30" as="geometry" />
        </mxCell>
        <mxCell id="bL9sHLg3ZVzQQd68nAyV-101" value="maxRange" style="text;html=1;strokeColor=none;fillColor=none;align=center;verticalAlign=middle;whiteSpace=wrap;rounded=0;fontColor=#006EAF;" vertex="1" parent="1">
          <mxGeometry x="688" y="448" width="60" height="30" as="geometry" />
        </mxCell>
        <mxCell id="bL9sHLg3ZVzQQd68nAyV-102" value="表面合法性判定" style="text;html=1;strokeColor=none;fillColor=none;align=center;verticalAlign=middle;whiteSpace=wrap;rounded=0;fontColor=#006EAF;" vertex="1" parent="1">
          <mxGeometry x="149" y="430" width="110" height="20" as="geometry" />
        </mxCell>
        <mxCell id="bL9sHLg3ZVzQQd68nAyV-103" value="阻挡修改位置" style="text;html=1;strokeColor=none;fillColor=none;align=center;verticalAlign=middle;whiteSpace=wrap;rounded=0;fontColor=#006EAF;" vertex="1" parent="1">
          <mxGeometry x="570" y="430" width="110" height="20" as="geometry" />
        </mxCell>
        <mxCell id="bL9sHLg3ZVzQQd68nAyV-159" value="" style="endArrow=none;dashed=1;html=1;rounded=0;strokeColor=#006EAF;fontColor=#006EAF;" edge="1" parent="1">
          <mxGeometry width="50" height="50" relative="1" as="geometry">
            <mxPoint y="450" as="sourcePoint" />
            <mxPoint x="960" y="450" as="targetPoint" />
          </mxGeometry>
        </mxCell>
        <mxCell id="bL9sHLg3ZVzQQd68nAyV-160" value="&lt;font style=&quot;font-size: 30px;&quot;&gt;通用情形&lt;/font&gt;" style="text;html=1;strokeColor=none;fillColor=none;align=center;verticalAlign=middle;whiteSpace=wrap;rounded=0;fontColor=#006EAF;" vertex="1" parent="1">
          <mxGeometry x="800" y="357" width="170" height="5" as="geometry" />
        </mxCell>
        <mxCell id="bL9sHLg3ZVzQQd68nAyV-161" value="&lt;span style=&quot;font-size: 30px;&quot;&gt;分类处理&lt;/span&gt;" style="text;html=1;strokeColor=none;fillColor=none;align=center;verticalAlign=middle;whiteSpace=wrap;rounded=0;fontColor=#006EAF;" vertex="1" parent="1">
          <mxGeometry x="800" y="543" width="170" height="5" as="geometry" />
        </mxCell>
      </root>
    </mxGraphModel>
  </diagram>
</mxfile>
